<svg version="1.1" id="Layer_1" xmlns="http://www.w3.org/2000/svg" xmlns:xlink="http://www.w3.org/1999/xlink" x="0px" y="0px" viewBox="0 0 539.4 134.7" style="enable-background:new 0 0 539.4 134.7;" xml:space="preserve">
 
 <g>
  <rect x="31.9" class="st0" width="507.5" height="134.7">
  </rect>
  <g>
   <path class="st1" d="M176.8,77.3c0,0,3.4,1.2,7.1,1.2c4,0,6.5-0.6,7.9-2c1.2-1.2,1.6-3.1,1.6-6V51.3h5.9v20.1&#xA;&#x9;&#x9;&#x9;c-0.1,8.9-4.4,12.7-14.4,12.7c-4.9,0-8.2-0.8-8.2-0.8V77.3z M202.9,70.8c0,6.1,4,13.3,15.3,13.3c11.3,0,15.3-7.2,15.3-13.3&#xA;&#x9;&#x9;&#x9;c0-8.6-5.7-13.7-15.3-13.7C208.6,57,202.9,62.2,202.9,70.8 M218.2,78.8c-3.5,0-9.3-1.1-9.3-8.3c0-5.2,3.4-8.2,9.3-8.2&#xA;&#x9;&#x9;&#x9;c5.9,0,9.3,3,9.3,8.2C227.5,77.7,221.6,78.8,218.2,78.8 M258.4,57.7v10.3h-15.5V57.7h-5.9v25.8h5.9V73.2h15.5v10.3h5.9V57.7H258.4&#xA;&#x9;&#x9;&#x9;z M352.8,78.2v-5h13.7v-5.3h-13.7v-5h17.7v-5.3h-23.7v25.8h23.7v-5.3H352.8z M380.5,78.2v-5h13.7v-5.3h-13.7v-5h17.7v-5.3h-23.7&#xA;&#x9;&#x9;&#x9;v25.8h23.7v-5.3H380.5z M438.1,78.2v-5h13.7v-5.3h-13.7v-5h17.7v-5.3h-23.7v25.8h23.7v-5.3H438.1z M317.2,56.6v21.6h8.4&#xA;&#x9;&#x9;&#x9;c4.6,0,12.2-1.4,12.2-10.9c0-6.8-4.5-10.7-12.2-10.7H317.2z M325.6,51.2c11.4,0,18.2,6.1,18.2,16.3c0,7.3-4.8,15.9-18.2,15.9h-7.5&#xA;&#x9;&#x9;&#x9;h-6.9V51.2h6.9H325.6 M429.4,83.4h-7.2l-7.2-9.4h-7v9.4h-5.9V57.7H419c5.8,0,9.2,3.1,9.2,8.3c0,3.1-1.7,6.6-6.2,7.7L429.4,83.4z&#xA;&#x9;&#x9;&#x9; M419.3,68.8c1.2,0,3.3-0.4,3.3-2.9c0-1.8-1.2-2.9-3.3-2.9h-10.9v5.8L419.3,68.8z M296.5,83.4V57.7h-5.9v17.4L275,57.7h-5.9v25.8&#xA;&#x9;&#x9;&#x9;h5.9V65.9l15.5,17.6H296.5z">
   </path>
   <path class="st1" d="M152,39.8c-9.9-4.9-21.3-7.6-33.1-7.6c-11.9,0-23.3,2.8-33.2,7.6c-3.5,8.5-5.5,17.8-5.5,27.5&#xA;&#x9;&#x9;&#x9;c0,9.7,1.9,19,5.4,27.5c9.9,4.9,21.3,7.6,33.2,7.6c11.9,0,23.3-2.7,33.2-7.6c3.5-8.5,5.5-17.8,5.5-27.5&#xA;&#x9;&#x9;&#x9;C157.5,57.6,155.5,48.3,152,39.8">
   </path>
   <path class="st2" d="M149.6,41.9c-9.2-4.3-19.8-6.8-30.8-6.8c-11,0-21.6,2.5-30.8,6.8c-3.1,7.9-4.8,16.5-4.8,25.4&#xA;&#x9;&#x9;&#x9;c0,8.9,1.7,17.5,4.8,25.4c9.3,4.4,19.8,6.8,30.8,6.8c11,0,21.6-2.4,30.8-6.8c3.1-7.9,4.8-16.5,4.8-25.4&#xA;&#x9;&#x9;&#x9;C154.5,58.4,152.8,49.8,149.6,41.9 M108.3,59.4c-1.6,3.2-2.7,6.7-3.2,10.8l-0.9,0.1c-3.3,0.3-6.8,0.6-10.1,1.9l0.2,1.4&#xA;&#x9;&#x9;&#x9;c5.4,6.8,13.7,10.9,13.8,10.9l0.2-0.2l-1.8-2.8c-0.4-0.3-1.5-0.6-1.6-0.6c-3.7-1.2-6.3-6.1-6.8-6.9c3.1,0,5.8,0.9,8.4,1.7&#xA;&#x9;&#x9;&#x9;c1.7,0.6,3.3,1.1,5,1.4c2.9,0.5,6-0.1,8.8-0.4c2.3-0.3,4.4-0.3,6.6-0.1c0.3,0.3,2.5,3.1,4.7,4.2c2.7,1.4,10.7,3.8,11.1,4&#xA;&#x9;&#x9;&#x9;c0.2,0.2,3.2,3.2,5.1,6.8c-8.9,4.1-19,6.3-29.1,6.3c-10.1,0-20.2-2.2-29.2-6.3c-3-7.7-4.5-15.7-4.5-24c0-8.2,1.5-16.3,4.5-24&#xA;&#x9;&#x9;&#x9;c9-4.2,19-6.3,29.2-6.3c10.1,0,20.2,2.2,29.1,6.3c3,7.7,4.5,15.8,4.5,24c0,7.6-1.3,14.9-3.7,22c-2.8-4.9-4-6.4-4-6.4&#xA;&#x9;&#x9;&#x9;c0,0-4-2.1-5-3c-0.8-0.7-1.2-2.1-1.6-3.7c-0.6-2.2-1.4-5-3.5-7.3l2.4-1c-0.7-4.6-6.1-7.6-6.2-7.7l-0.3,0.1&#xA;&#x9;&#x9;&#x9;c2.1,2.6,2.7,4.9,2.7,6.2c0,0.7-0.1,1.2-0.2,1.3c-0.6-0.2-4.7-1.5-13.9-1.2c-1.4,0-3.3,0-4.4-1.1c-0.7-0.6-1-1.5-1-2.7v0&#xA;&#x9;&#x9;&#x9;c0-3.2,1.3-7.5,1.5-8.1l2.4,0.3c2.9-1.6,4-3,4.1-3.2l-0.1-0.1c-2.4,0.3-5.6,1-5.6,1c0.2-0.6,0.9-2.4,0.9-4.5&#xA;&#x9;&#x9;&#x9;c0-2.2-0.7-4.8-3.6-6.2l-0.3,0.1c0,0,1.7,1.8,1.7,4.2c0,0.7-0.1,1.4-0.5,2.2c-0.9-0.4-1.3-0.4-2.4-0.5c-0.5-1.9-2.2-3.5-4.5-4.4&#xA;&#x9;&#x9;&#x9;l-0.3,0.2c0,0,2.4,1.7,2.6,4.3c-1.2,0.1-1.7,0.2-3.2,0.7c-0.6-1-2.1-1.8-3.8-2l-0.2,0.2c0,0,2.1,0.7,2.6,2.4&#xA;&#x9;&#x9;&#x9;c-1.3,0.6-2.7,1.5-3.6,2.3l0.1,0.4c5.5-2.1,10.6-2.7,11.9-1.2c0.2,0.3,0.3,0.6,0.3,0.9c0,0.5-0.2,1-0.5,1.6&#xA;&#x9;&#x9;&#x9;c-2.7,0.6-6.8,1.7-10.1,3l0.4,1.4c0,0,3.4,0.7,4.6,0.9C108.1,58.8,108.5,58.9,108.3,59.4">
   </path>
  </g>
  <rect class="st1" width="23.9" height="134.7">
  </rect>
  <rect x="23.9" class="st2" width="8" height="134.7">
  </rect>
 </g>
</svg>